<mxfile host="Electron" modified="2024-02-25T11:28:16.838Z" agent="Mozilla/5.0 (X11; Linux x86_64) AppleWebKit/537.36 (KHTML, like Gecko) draw.io/22.1.21 Chrome/120.0.6099.109 Electron/28.1.0 Safari/537.36" etag="HmUHPJZJoDAOCFE-u5Yd" version="22.1.21" type="device">
  <diagram name="Page-1" id="TO5Ca2XAnfswPwZQurmM">
    <mxGraphModel dx="1949" dy="2184" grid="1" gridSize="10" guides="1" tooltips="1" connect="1" arrows="1" fold="1" page="1" pageScale="1" pageWidth="850" pageHeight="1100" math="0" shadow="0">
      <root>
        <mxCell id="0" />
        <mxCell id="1" parent="0" />
        <mxCell id="5t-yonrzGmxLYd3BEVHS-24" value="" style="whiteSpace=wrap;html=1;aspect=fixed;" parent="1" vertex="1">
          <mxGeometry x="-565" y="-750" width="1500" height="1500" as="geometry" />
        </mxCell>
        <mxCell id="5t-yonrzGmxLYd3BEVHS-21" value="" style="whiteSpace=wrap;html=1;aspect=fixed;" parent="1" vertex="1">
          <mxGeometry x="-550" y="-440" width="1500" height="1500" as="geometry" />
        </mxCell>
        <mxCell id="5t-yonrzGmxLYd3BEVHS-18" value="" style="whiteSpace=wrap;html=1;aspect=fixed;" parent="1" vertex="1">
          <mxGeometry x="-285" y="-240" width="970" height="970" as="geometry" />
        </mxCell>
        <mxCell id="5t-yonrzGmxLYd3BEVHS-9" value="" style="whiteSpace=wrap;html=1;aspect=fixed;" parent="1" vertex="1">
          <mxGeometry x="-130" y="-20" width="630" height="630" as="geometry" />
        </mxCell>
        <mxCell id="5t-yonrzGmxLYd3BEVHS-1" value="" style="whiteSpace=wrap;html=1;aspect=fixed;" parent="1" vertex="1">
          <mxGeometry x="35" y="120" width="355" height="355" as="geometry" />
        </mxCell>
        <mxCell id="5t-yonrzGmxLYd3BEVHS-2" value="Coin" style="swimlane;fontStyle=0;childLayout=stackLayout;horizontal=1;startSize=30;horizontalStack=0;resizeParent=1;resizeParentMax=0;resizeLast=0;collapsible=1;marginBottom=0;whiteSpace=wrap;html=1;" parent="1" vertex="1">
          <mxGeometry x="35" y="120" width="170" height="210" as="geometry" />
        </mxCell>
        <mxCell id="5t-yonrzGmxLYd3BEVHS-3" value="name&lt;span style=&quot;white-space: pre;&quot;&gt;&#x9;&lt;/span&gt;string" style="text;strokeColor=none;fillColor=none;align=left;verticalAlign=middle;spacingLeft=4;spacingRight=4;overflow=hidden;points=[[0,0.5],[1,0.5]];portConstraint=eastwest;rotatable=0;whiteSpace=wrap;html=1;" parent="5t-yonrzGmxLYd3BEVHS-2" vertex="1">
          <mxGeometry y="30" width="170" height="30" as="geometry" />
        </mxCell>
        <mxCell id="5t-yonrzGmxLYd3BEVHS-4" value="current_price float64" style="text;strokeColor=none;fillColor=none;align=left;verticalAlign=middle;spacingLeft=4;spacingRight=4;overflow=hidden;points=[[0,0.5],[1,0.5]];portConstraint=eastwest;rotatable=0;whiteSpace=wrap;html=1;" parent="5t-yonrzGmxLYd3BEVHS-2" vertex="1">
          <mxGeometry y="60" width="170" height="30" as="geometry" />
        </mxCell>
        <mxCell id="5t-yonrzGmxLYd3BEVHS-6" value="min_price float64" style="text;strokeColor=none;fillColor=none;align=left;verticalAlign=middle;spacingLeft=4;spacingRight=4;overflow=hidden;points=[[0,0.5],[1,0.5]];portConstraint=eastwest;rotatable=0;whiteSpace=wrap;html=1;" parent="5t-yonrzGmxLYd3BEVHS-2" vertex="1">
          <mxGeometry y="90" width="170" height="30" as="geometry" />
        </mxCell>
        <mxCell id="5t-yonrzGmxLYd3BEVHS-5" value="max_price float64" style="text;strokeColor=none;fillColor=none;align=left;verticalAlign=middle;spacingLeft=4;spacingRight=4;overflow=hidden;points=[[0,0.5],[1,0.5]];portConstraint=eastwest;rotatable=0;whiteSpace=wrap;html=1;" parent="5t-yonrzGmxLYd3BEVHS-2" vertex="1">
          <mxGeometry y="120" width="170" height="30" as="geometry" />
        </mxCell>
        <mxCell id="5t-yonrzGmxLYd3BEVHS-7" value="max_price float64" style="text;strokeColor=none;fillColor=none;align=left;verticalAlign=middle;spacingLeft=4;spacingRight=4;overflow=hidden;points=[[0,0.5],[1,0.5]];portConstraint=eastwest;rotatable=0;whiteSpace=wrap;html=1;" parent="5t-yonrzGmxLYd3BEVHS-2" vertex="1">
          <mxGeometry y="150" width="170" height="30" as="geometry" />
        </mxCell>
        <mxCell id="5t-yonrzGmxLYd3BEVHS-8" value="percent_change_hour float64" style="text;strokeColor=none;fillColor=none;align=left;verticalAlign=middle;spacingLeft=4;spacingRight=4;overflow=hidden;points=[[0,0.5],[1,0.5]];portConstraint=eastwest;rotatable=0;whiteSpace=wrap;html=1;" parent="5t-yonrzGmxLYd3BEVHS-2" vertex="1">
          <mxGeometry y="180" width="170" height="30" as="geometry" />
        </mxCell>
        <mxCell id="5t-yonrzGmxLYd3BEVHS-10" value="Create User" style="ellipse;whiteSpace=wrap;html=1;" parent="1" vertex="1">
          <mxGeometry x="420" y="310" width="120" height="80" as="geometry" />
        </mxCell>
        <mxCell id="5t-yonrzGmxLYd3BEVHS-11" value="CreateCoin" style="ellipse;whiteSpace=wrap;html=1;" parent="1" vertex="1">
          <mxGeometry x="-90" y="220" width="120" height="80" as="geometry" />
        </mxCell>
        <mxCell id="5t-yonrzGmxLYd3BEVHS-12" value="Update Coin" style="ellipse;whiteSpace=wrap;html=1;" parent="1" vertex="1">
          <mxGeometry x="-160" y="310" width="120" height="80" as="geometry" />
        </mxCell>
        <mxCell id="5t-yonrzGmxLYd3BEVHS-13" value="ExistsUser" style="ellipse;whiteSpace=wrap;html=1;" parent="1" vertex="1">
          <mxGeometry x="400" y="205" width="120" height="80" as="geometry" />
        </mxCell>
        <mxCell id="5t-yonrzGmxLYd3BEVHS-16" style="edgeStyle=orthogonalEdgeStyle;rounded=0;orthogonalLoop=1;jettySize=auto;html=1;entryX=0.5;entryY=0;entryDx=0;entryDy=0;" parent="1" source="5t-yonrzGmxLYd3BEVHS-15" target="5t-yonrzGmxLYd3BEVHS-11" edge="1">
          <mxGeometry relative="1" as="geometry" />
        </mxCell>
        <mxCell id="5t-yonrzGmxLYd3BEVHS-15" value="CoinRepo" style="ellipse;whiteSpace=wrap;html=1;" parent="1" vertex="1">
          <mxGeometry x="-90" y="50" width="120" height="80" as="geometry" />
        </mxCell>
        <mxCell id="5t-yonrzGmxLYd3BEVHS-20" style="edgeStyle=orthogonalEdgeStyle;rounded=0;orthogonalLoop=1;jettySize=auto;html=1;entryX=0.5;entryY=0;entryDx=0;entryDy=0;" parent="1" source="5t-yonrzGmxLYd3BEVHS-19" target="5t-yonrzGmxLYd3BEVHS-15" edge="1">
          <mxGeometry relative="1" as="geometry" />
        </mxCell>
        <mxCell id="5t-yonrzGmxLYd3BEVHS-19" value="CoinService" style="ellipse;whiteSpace=wrap;html=1;" parent="1" vertex="1">
          <mxGeometry x="-20" y="-160" width="120" height="80" as="geometry" />
        </mxCell>
        <mxCell id="5t-yonrzGmxLYd3BEVHS-23" value="POSTGRES" style="shape=cylinder3;whiteSpace=wrap;html=1;boundedLbl=1;backgroundOutline=1;size=15;" parent="1" vertex="1">
          <mxGeometry x="110" y="790" width="150" height="80" as="geometry" />
        </mxCell>
        <mxCell id="5t-yonrzGmxLYd3BEVHS-25" value="REST API" style="ellipse;whiteSpace=wrap;html=1;" parent="1" vertex="1">
          <mxGeometry x="270" y="-590" width="120" height="80" as="geometry" />
        </mxCell>
        <mxCell id="acbM08ZVJa5Oi5j_uAcI-29" style="edgeStyle=orthogonalEdgeStyle;rounded=0;orthogonalLoop=1;jettySize=auto;html=1;entryX=0.5;entryY=0;entryDx=0;entryDy=0;" edge="1" parent="1" source="5t-yonrzGmxLYd3BEVHS-26" target="acbM08ZVJa5Oi5j_uAcI-24">
          <mxGeometry relative="1" as="geometry" />
        </mxCell>
        <mxCell id="5t-yonrzGmxLYd3BEVHS-26" value="Telegram" style="ellipse;whiteSpace=wrap;html=1;" parent="1" vertex="1">
          <mxGeometry x="35" y="-590" width="120" height="80" as="geometry" />
        </mxCell>
        <mxCell id="acbM08ZVJa5Oi5j_uAcI-1" style="edgeStyle=orthogonalEdgeStyle;rounded=0;orthogonalLoop=1;jettySize=auto;html=1;entryX=0.5;entryY=0;entryDx=0;entryDy=0;entryPerimeter=0;" edge="1" parent="1" source="5t-yonrzGmxLYd3BEVHS-10" target="5t-yonrzGmxLYd3BEVHS-23">
          <mxGeometry relative="1" as="geometry">
            <Array as="points">
              <mxPoint x="410" y="350" />
              <mxPoint x="410" y="550" />
              <mxPoint x="180" y="550" />
            </Array>
          </mxGeometry>
        </mxCell>
        <mxCell id="acbM08ZVJa5Oi5j_uAcI-2" style="edgeStyle=orthogonalEdgeStyle;rounded=0;orthogonalLoop=1;jettySize=auto;html=1;entryX=0.5;entryY=0;entryDx=0;entryDy=0;entryPerimeter=0;" edge="1" parent="1" source="5t-yonrzGmxLYd3BEVHS-12" target="5t-yonrzGmxLYd3BEVHS-23">
          <mxGeometry relative="1" as="geometry">
            <Array as="points">
              <mxPoint x="-30" y="350" />
              <mxPoint x="-30" y="550" />
              <mxPoint x="180" y="550" />
            </Array>
          </mxGeometry>
        </mxCell>
        <mxCell id="acbM08ZVJa5Oi5j_uAcI-3" style="edgeStyle=orthogonalEdgeStyle;rounded=0;orthogonalLoop=1;jettySize=auto;html=1;entryX=0.5;entryY=0;entryDx=0;entryDy=0;entryPerimeter=0;" edge="1" parent="1" source="5t-yonrzGmxLYd3BEVHS-11" target="5t-yonrzGmxLYd3BEVHS-23">
          <mxGeometry relative="1" as="geometry">
            <Array as="points">
              <mxPoint x="-30" y="550" />
              <mxPoint x="180" y="550" />
            </Array>
          </mxGeometry>
        </mxCell>
        <mxCell id="acbM08ZVJa5Oi5j_uAcI-4" style="edgeStyle=orthogonalEdgeStyle;rounded=0;orthogonalLoop=1;jettySize=auto;html=1;entryX=0.5;entryY=0;entryDx=0;entryDy=0;entryPerimeter=0;" edge="1" parent="1" source="5t-yonrzGmxLYd3BEVHS-13" target="5t-yonrzGmxLYd3BEVHS-23">
          <mxGeometry relative="1" as="geometry">
            <Array as="points">
              <mxPoint x="410" y="550" />
              <mxPoint x="180" y="550" />
            </Array>
          </mxGeometry>
        </mxCell>
        <mxCell id="acbM08ZVJa5Oi5j_uAcI-5" value="Get Coin" style="ellipse;whiteSpace=wrap;html=1;" vertex="1" parent="1">
          <mxGeometry x="-160" y="410" width="120" height="80" as="geometry" />
        </mxCell>
        <mxCell id="acbM08ZVJa5Oi5j_uAcI-6" style="edgeStyle=orthogonalEdgeStyle;rounded=0;orthogonalLoop=1;jettySize=auto;html=1;entryX=0.5;entryY=0;entryDx=0;entryDy=0;entryPerimeter=0;" edge="1" parent="1" source="acbM08ZVJa5Oi5j_uAcI-5" target="5t-yonrzGmxLYd3BEVHS-23">
          <mxGeometry relative="1" as="geometry">
            <Array as="points">
              <mxPoint x="-30" y="450" />
              <mxPoint x="-30" y="550" />
              <mxPoint x="180" y="550" />
            </Array>
          </mxGeometry>
        </mxCell>
        <mxCell id="acbM08ZVJa5Oi5j_uAcI-7" value="Get All Coins" style="ellipse;whiteSpace=wrap;html=1;" vertex="1" parent="1">
          <mxGeometry x="-160" y="490" width="120" height="80" as="geometry" />
        </mxCell>
        <mxCell id="acbM08ZVJa5Oi5j_uAcI-8" style="edgeStyle=orthogonalEdgeStyle;rounded=0;orthogonalLoop=1;jettySize=auto;html=1;entryX=0.5;entryY=0;entryDx=0;entryDy=0;entryPerimeter=0;" edge="1" parent="1" source="acbM08ZVJa5Oi5j_uAcI-7" target="5t-yonrzGmxLYd3BEVHS-23">
          <mxGeometry relative="1" as="geometry">
            <Array as="points">
              <mxPoint x="180" y="550" />
            </Array>
          </mxGeometry>
        </mxCell>
        <mxCell id="acbM08ZVJa5Oi5j_uAcI-9" style="edgeStyle=orthogonalEdgeStyle;rounded=0;orthogonalLoop=1;jettySize=auto;html=1;entryX=0.5;entryY=0;entryDx=0;entryDy=0;entryPerimeter=0;" edge="1" parent="1" source="5t-yonrzGmxLYd3BEVHS-10" target="5t-yonrzGmxLYd3BEVHS-23">
          <mxGeometry relative="1" as="geometry">
            <Array as="points">
              <mxPoint x="410" y="350" />
              <mxPoint x="410" y="550" />
              <mxPoint x="180" y="550" />
            </Array>
          </mxGeometry>
        </mxCell>
        <mxCell id="acbM08ZVJa5Oi5j_uAcI-14" style="edgeStyle=orthogonalEdgeStyle;rounded=0;orthogonalLoop=1;jettySize=auto;html=1;entryX=0.5;entryY=0;entryDx=0;entryDy=0;" edge="1" parent="1" source="acbM08ZVJa5Oi5j_uAcI-10" target="5t-yonrzGmxLYd3BEVHS-13">
          <mxGeometry relative="1" as="geometry" />
        </mxCell>
        <mxCell id="acbM08ZVJa5Oi5j_uAcI-10" value="UserRepo" style="ellipse;whiteSpace=wrap;html=1;" vertex="1" parent="1">
          <mxGeometry x="365" y="40" width="120" height="80" as="geometry" />
        </mxCell>
        <mxCell id="acbM08ZVJa5Oi5j_uAcI-15" style="edgeStyle=orthogonalEdgeStyle;rounded=0;orthogonalLoop=1;jettySize=auto;html=1;entryX=0.5;entryY=0;entryDx=0;entryDy=0;" edge="1" parent="1" source="acbM08ZVJa5Oi5j_uAcI-11" target="acbM08ZVJa5Oi5j_uAcI-10">
          <mxGeometry relative="1" as="geometry" />
        </mxCell>
        <mxCell id="acbM08ZVJa5Oi5j_uAcI-11" value="UserService" style="ellipse;whiteSpace=wrap;html=1;" vertex="1" parent="1">
          <mxGeometry x="310" y="-170" width="120" height="80" as="geometry" />
        </mxCell>
        <mxCell id="acbM08ZVJa5Oi5j_uAcI-12" value="Update User" style="ellipse;whiteSpace=wrap;html=1;" vertex="1" parent="1">
          <mxGeometry x="425" y="400" width="120" height="80" as="geometry" />
        </mxCell>
        <mxCell id="acbM08ZVJa5Oi5j_uAcI-13" value="Delete User" style="ellipse;whiteSpace=wrap;html=1;" vertex="1" parent="1">
          <mxGeometry x="420" y="490" width="120" height="80" as="geometry" />
        </mxCell>
        <mxCell id="acbM08ZVJa5Oi5j_uAcI-17" value="User" style="swimlane;fontStyle=0;childLayout=stackLayout;horizontal=1;startSize=30;horizontalStack=0;resizeParent=1;resizeParentMax=0;resizeLast=0;collapsible=1;marginBottom=0;whiteSpace=wrap;html=1;" vertex="1" parent="1">
          <mxGeometry x="220" y="260" width="170" height="180" as="geometry" />
        </mxCell>
        <mxCell id="acbM08ZVJa5Oi5j_uAcI-18" value="ID int64" style="text;strokeColor=none;fillColor=none;align=left;verticalAlign=middle;spacingLeft=4;spacingRight=4;overflow=hidden;points=[[0,0.5],[1,0.5]];portConstraint=eastwest;rotatable=0;whiteSpace=wrap;html=1;" vertex="1" parent="acbM08ZVJa5Oi5j_uAcI-17">
          <mxGeometry y="30" width="170" height="30" as="geometry" />
        </mxCell>
        <mxCell id="acbM08ZVJa5Oi5j_uAcI-19" value="ChatID int64" style="text;strokeColor=none;fillColor=none;align=left;verticalAlign=middle;spacingLeft=4;spacingRight=4;overflow=hidden;points=[[0,0.5],[1,0.5]];portConstraint=eastwest;rotatable=0;whiteSpace=wrap;html=1;" vertex="1" parent="acbM08ZVJa5Oi5j_uAcI-17">
          <mxGeometry y="60" width="170" height="30" as="geometry" />
        </mxCell>
        <mxCell id="acbM08ZVJa5Oi5j_uAcI-20" value="Coin string" style="text;strokeColor=none;fillColor=none;align=left;verticalAlign=middle;spacingLeft=4;spacingRight=4;overflow=hidden;points=[[0,0.5],[1,0.5]];portConstraint=eastwest;rotatable=0;whiteSpace=wrap;html=1;" vertex="1" parent="acbM08ZVJa5Oi5j_uAcI-17">
          <mxGeometry y="90" width="170" height="30" as="geometry" />
        </mxCell>
        <mxCell id="acbM08ZVJa5Oi5j_uAcI-21" value="NotificationInterval&amp;nbsp;" style="text;strokeColor=none;fillColor=none;align=left;verticalAlign=middle;spacingLeft=4;spacingRight=4;overflow=hidden;points=[[0,0.5],[1,0.5]];portConstraint=eastwest;rotatable=0;whiteSpace=wrap;html=1;" vertex="1" parent="acbM08ZVJa5Oi5j_uAcI-17">
          <mxGeometry y="120" width="170" height="30" as="geometry" />
        </mxCell>
        <mxCell id="acbM08ZVJa5Oi5j_uAcI-22" value="LastNotificationTime" style="text;strokeColor=none;fillColor=none;align=left;verticalAlign=middle;spacingLeft=4;spacingRight=4;overflow=hidden;points=[[0,0.5],[1,0.5]];portConstraint=eastwest;rotatable=0;whiteSpace=wrap;html=1;" vertex="1" parent="acbM08ZVJa5Oi5j_uAcI-17">
          <mxGeometry y="150" width="170" height="30" as="geometry" />
        </mxCell>
        <mxCell id="acbM08ZVJa5Oi5j_uAcI-26" style="edgeStyle=orthogonalEdgeStyle;rounded=0;orthogonalLoop=1;jettySize=auto;html=1;entryX=0.5;entryY=0;entryDx=0;entryDy=0;" edge="1" parent="1" source="acbM08ZVJa5Oi5j_uAcI-24" target="5t-yonrzGmxLYd3BEVHS-19">
          <mxGeometry relative="1" as="geometry" />
        </mxCell>
        <mxCell id="acbM08ZVJa5Oi5j_uAcI-27" style="edgeStyle=orthogonalEdgeStyle;rounded=0;orthogonalLoop=1;jettySize=auto;html=1;entryX=0.5;entryY=0;entryDx=0;entryDy=0;" edge="1" parent="1" source="acbM08ZVJa5Oi5j_uAcI-24" target="acbM08ZVJa5Oi5j_uAcI-11">
          <mxGeometry relative="1" as="geometry" />
        </mxCell>
        <mxCell id="acbM08ZVJa5Oi5j_uAcI-28" style="edgeStyle=orthogonalEdgeStyle;rounded=0;orthogonalLoop=1;jettySize=auto;html=1;entryX=0.5;entryY=1;entryDx=0;entryDy=0;" edge="1" parent="1" source="acbM08ZVJa5Oi5j_uAcI-24" target="5t-yonrzGmxLYd3BEVHS-25">
          <mxGeometry relative="1" as="geometry" />
        </mxCell>
        <mxCell id="acbM08ZVJa5Oi5j_uAcI-24" value="Service" style="ellipse;whiteSpace=wrap;html=1;" vertex="1" parent="1">
          <mxGeometry x="150" y="-230" width="120" height="80" as="geometry" />
        </mxCell>
      </root>
    </mxGraphModel>
  </diagram>
</mxfile>
